<svg width="30" height="30" viewBox="0 0 30 30" fill="none" xmlns="http://www.w3.org/2000/svg">
    <g clip-path="url(#clip0)">
        <path d="M15 0C14.5146 0 14.1211 0.393516 14.1211 0.878906V6.52734C14.1211 7.01273 14.5146 7.40625 15 7.40625C15.4854 7.40625 15.8789 7.01273 15.8789 6.52734V0.878906C15.8789 0.393516 15.4854 0 15 0Z" fill="#19C788"/>
        <path opacity="0.3" d="M15 22.5938C14.5146 22.5938 14.1211 22.9873 14.1211 23.4727V29.121C14.1211 29.6064 14.5146 29.9999 15 29.9999C15.4854 29.9999 15.8789 29.6064 15.8789 29.121V23.4727C15.8789 22.9872 15.4854 22.5938 15 22.5938Z" fill="#19C788"/>
        <path opacity="0.9" d="M11.5249 7.22389L8.70071 2.33219C8.45801 1.91178 7.92047 1.76776 7.50012 2.01051C7.07977 2.25321 6.93575 2.79075 7.17844 3.2111L10.0027 8.10279C10.1654 8.38481 10.4609 8.54236 10.7646 8.54236C10.9137 8.54236 11.0648 8.5044 11.2032 8.42447C11.6236 8.18178 11.7676 7.64424 11.5249 7.22389Z" fill="#19C788"/>
        <path opacity="0.2" d="M22.8218 26.7902L19.9976 21.8986C19.7549 21.4782 19.2174 21.3342 18.797 21.5769C18.3766 21.8196 18.2326 22.3572 18.4753 22.7775L21.2995 27.6691C21.4623 27.9511 21.7577 28.1087 22.0614 28.1087C22.2106 28.1087 22.3617 28.0707 22.5001 27.9908C22.9204 27.7481 23.0645 27.2105 22.8218 26.7902Z" fill="#19C788"/>
        <path opacity="0.8" d="M8.10184 10.0028L3.21008 7.17851C2.78961 6.93569 2.25219 7.07978 2.0095 7.50019C1.7668 7.92054 1.91082 8.45808 2.33118 8.70077L7.22293 11.5251C7.36133 11.605 7.51244 11.643 7.66157 11.643C7.96532 11.643 8.26075 11.4854 8.42352 11.2034C8.66621 10.783 8.52219 10.2455 8.10184 10.0028Z" fill="#19C788"/>
        <path opacity="0.1" d="M27.6686 21.2995L22.777 18.4753C22.3565 18.2326 21.819 18.3766 21.5764 18.7971C21.3337 19.2175 21.4777 19.755 21.8981 19.9976L26.7897 22.8218C26.9282 22.9017 27.0792 22.9397 27.2283 22.9397C27.5321 22.9397 27.8276 22.7821 27.9903 22.5001C28.233 22.0796 28.089 21.5421 27.6686 21.2995Z" fill="#19C788"/>
        <path opacity="0.7" d="M6.5274 14.1211H0.878906C0.393516 14.1211 0 14.5146 0 15C0 15.4854 0.393516 15.8789 0.878906 15.8789H6.5274C7.01279 15.8789 7.40631 15.4854 7.40631 15C7.40631 14.5146 7.01279 14.1211 6.5274 14.1211Z" fill="#19C788"/>
        <path opacity="0.05" d="M29.121 14.1211H23.4727C22.9873 14.1211 22.5938 14.5146 22.5938 15C22.5938 15.4854 22.9873 15.8789 23.4727 15.8789H29.121C29.6064 15.8789 29.9999 15.4854 29.9999 15C29.9999 14.5146 29.6064 14.1211 29.121 14.1211Z" fill="#19C788"/>
        <path opacity="0.6" d="M8.42401 18.797C8.18132 18.3766 7.64389 18.2326 7.22342 18.4754L2.33166 21.2996C1.91131 21.5423 1.76729 22.0798 2.00998 22.5002C2.17276 22.7822 2.46819 22.9397 2.77194 22.9397C2.92106 22.9397 3.07217 22.9018 3.21057 22.8218L8.10233 19.9976C8.52268 19.7549 8.66671 19.2174 8.42401 18.797Z" fill="#19C788"/>
        <path opacity="0.5" d="M11.2032 21.5769C10.7829 21.3341 10.2453 21.4782 10.0027 21.8986L7.17844 26.7903C6.93575 27.2107 7.07977 27.7482 7.50012 27.9909C7.63852 28.0708 7.78963 28.1088 7.93875 28.1088C8.2425 28.1088 8.53799 27.9512 8.70071 27.6692L11.5249 22.7775C11.7676 22.3572 11.6236 21.8196 11.2032 21.5769Z" fill="#19C788"/>
        <path d="M22.5001 2.01054C22.0797 1.76773 21.5422 1.91181 21.2995 2.33222L18.4754 7.2238C18.2326 7.64415 18.3766 8.18169 18.797 8.42439C18.9354 8.50431 19.0865 8.54228 19.2357 8.54228C19.5394 8.54228 19.8348 8.38466 19.9976 8.10271L22.8218 3.21112C23.0645 2.79077 22.9205 2.25323 22.5001 2.01054Z" fill="#19C788"/>
    </g>
    <defs>
        <clipPath id="clip0">
            <rect width="30" height="30" fill="white"/>
        </clipPath>
    </defs>
</svg>
