<svg width="167" height="45" viewBox="0 0 167 45" fill="none" xmlns="http://www.w3.org/2000/svg">
<g clip-path="url(#clip0)">
<path d="M161.095 7.48157C160.988 7.35274 160.855 7.24639 160.705 7.16899C160.554 7.09158 160.389 7.04473 160.22 7.03126C160.05 7.0178 159.88 7.03801 159.719 7.09067C159.557 7.14332 159.409 7.22733 159.282 7.33759C159.155 7.44785 159.052 7.58207 158.98 7.73211C158.908 7.88214 158.868 8.04487 158.863 8.21042C158.857 8.37597 158.886 8.54089 158.948 8.69518C159.01 8.84947 159.103 8.98991 159.222 9.108C162.507 12.6848 164.36 17.2933 164.442 22.0911C164.524 26.8888 162.831 31.5551 159.671 35.2367C156.511 38.9184 152.096 41.3695 147.233 42.1419C142.371 42.9142 137.385 41.9562 133.188 39.443C128.99 36.9297 125.862 33.0292 124.375 28.4547C122.888 23.8801 123.141 18.937 125.088 14.5293C127.036 10.1216 130.547 6.54373 134.98 4.44987C139.414 2.35602 144.473 1.88609 149.232 3.12599C149.335 3.15363 149.44 3.16839 149.546 3.16991C149.851 3.16997 150.145 3.06252 150.374 2.86749C150.603 2.67246 150.752 2.40308 150.793 2.10933C150.833 1.81557 150.764 1.51738 150.596 1.27006C150.428 1.02274 150.174 0.843088 149.88 0.764421C147.928 0.256737 145.917 -0.000247678 143.896 1.79119e-07C131.157 1.79119e-07 120.793 10.0936 120.793 22.5C120.793 34.9064 131.157 45 143.896 45C156.636 45 167.005 34.9064 167.005 22.5C167.007 16.9549 164.901 11.6053 161.095 7.48157Z" fill="#FF9900"/>
<path d="M128.041 18.6424V31.1561H130.184V25.8719H130.219C130.772 26.7062 131.86 27.2283 133.058 27.2283C135.663 27.2283 137.27 25.2115 137.27 22.7784C137.27 20.3095 135.556 18.3984 133.111 18.3984C131.54 18.3984 130.576 19.1466 130.149 19.8069H130.097V18.6424H128.041ZM132.629 20.1062C134.289 20.1062 135.092 21.4789 135.092 22.7833C135.092 24.0877 134.289 25.4945 132.629 25.4945C131.059 25.4945 130.112 24.1218 130.112 22.8174C130.112 21.513 131.057 20.1013 132.627 20.1013L132.629 20.1062Z" fill="#FF9900"/>
<path d="M141.515 13.844H139.372V26.9839H141.515V13.844Z" fill="#FF9900"/>
<path d="M151.937 26.9841V18.6405H149.803V23.2287C149.803 24.3411 149.16 25.4878 147.799 25.4878C146.438 25.4878 146.192 24.2533 146.192 23.2628V18.6421H144.048V23.8565C144.048 25.5593 144.976 27.228 147.208 27.228C148.475 27.228 149.492 26.4799 149.866 25.6472H149.901V26.9857L151.937 26.9841Z" fill="#FF9900"/>
<path d="M157.326 19.9631C157.688 19.9682 158.044 20.0521 158.368 20.2085C158.693 20.365 158.977 20.5901 159.2 20.8674L160.593 19.6671C159.897 18.8148 158.612 18.3984 157.38 18.3984C155.685 18.3984 153.971 19.197 153.971 21.0576C153.971 22.6223 155.239 23.1265 156.506 23.4208C157.809 23.7169 158.469 23.925 158.469 24.6195C158.469 25.3677 157.719 25.61 157.094 25.61C156.671 25.6096 156.254 25.5155 155.874 25.3349C155.494 25.1543 155.16 24.8919 154.9 24.5675L153.49 25.8605C154.312 26.7469 155.685 27.2332 157.006 27.2332C158.879 27.2332 160.575 26.485 160.575 24.452C160.575 22.8256 159.072 22.2612 157.807 21.9668C156.612 21.6887 155.952 21.5147 155.952 20.8722C155.952 20.2298 156.65 19.9631 157.326 19.9631Z" fill="#FF9900"/>
<path d="M152.2 6.35786H153.688V7.80701C153.688 8.13247 153.82 8.44459 154.057 8.67473C154.293 8.90486 154.613 9.03415 154.948 9.03415C155.282 9.03415 155.602 8.90486 155.839 8.67473C156.075 8.44459 156.208 8.13247 156.208 7.80701V6.35786H157.696C158.03 6.35786 158.35 6.22857 158.587 5.99844C158.823 5.76831 158.956 5.45618 158.956 5.13072C158.956 4.80526 158.823 4.49314 158.587 4.263C158.35 4.03287 158.03 3.90358 157.696 3.90358H156.208V2.45443C156.208 2.12898 156.075 1.81685 155.839 1.58672C155.602 1.35658 155.282 1.22729 154.948 1.22729C154.613 1.22729 154.293 1.35658 154.057 1.58672C153.82 1.81685 153.688 2.12898 153.688 2.45443V3.90358H152.2C151.865 3.90358 151.545 4.03287 151.309 4.263C151.072 4.49314 150.939 4.80526 150.939 5.13072C150.939 5.45618 151.072 5.76831 151.309 5.99844C151.545 6.22857 151.865 6.35786 152.2 6.35786Z" fill="#FF9900"/>
<path d="M2.5986 35.5474H0V16.3198H2.54349V18.3121H2.62699C3.48372 16.9655 5.19887 15.9701 7.3549 15.9701C11.2545 15.9701 13.9082 18.8977 13.9082 22.6759C13.9082 26.4166 11.3363 29.4353 7.29979 29.4353C5.4477 29.4353 3.64906 28.6009 2.6821 27.1729H2.5986V35.5474ZM6.85723 18.0698C4.20185 18.0698 2.43326 20.2509 2.43326 22.7019C2.43326 25.1529 4.20352 27.3063 6.85723 27.3063C9.70466 27.3063 11.2261 25.0716 11.2261 22.6742C11.2261 20.2769 9.70633 18.0698 6.85723 18.0698Z" fill="white"/>
<path d="M23.7248 29.4382C19.7167 29.4382 16.6738 26.6099 16.6738 22.6788C16.6738 18.7477 19.715 15.973 23.7248 15.973C27.7346 15.973 30.8041 18.7461 30.8041 22.6788C30.8041 26.6115 27.7346 29.4382 23.7248 29.4382ZM23.7248 18.0744C20.9325 18.0744 19.3559 20.2554 19.3559 22.6788C19.3559 25.1022 20.9325 27.3108 23.7248 27.3108C26.5455 27.3108 28.0936 25.1022 28.0936 22.6788C28.0936 20.2554 26.5455 18.0695 23.7248 18.0695V18.0744Z" fill="white"/>
<path d="M43.744 18.3934L36.2789 26.9566H44.0496V29.084H33.0674V27.0103L40.4774 18.3902H33.4315V16.3198H43.7457L43.744 18.3934ZM38.7456 13.3369C38.4184 13.3241 38.1023 13.218 37.8366 13.0317C37.5709 12.8454 37.3673 12.5872 37.2511 12.2891C37.1349 11.991 37.1112 11.6662 37.1829 11.3551C37.2547 11.0441 37.4188 10.7604 37.6548 10.5394C37.8908 10.3184 38.1883 10.1698 38.5103 10.1121C38.8323 10.0545 39.1647 10.0903 39.4659 10.2151C39.7672 10.3398 40.0242 10.5481 40.2049 10.814C40.3857 11.0799 40.4821 11.3916 40.4824 11.7105C40.4794 11.9287 40.4319 12.1442 40.3427 12.3445C40.2535 12.5447 40.1244 12.7257 39.9629 12.877C39.8013 13.0283 39.6105 13.1469 39.4016 13.2258C39.1926 13.3047 38.9696 13.3425 38.7456 13.3369Z" fill="white"/>
<path d="M52.1509 26.3367H52.206L55.8284 16.3195H58.594L52.2344 32.0959C51.3777 34.2233 50.2704 35.5423 47.7002 35.5423C47.1229 35.5446 46.5473 35.4813 45.9851 35.3536L46.2339 33.1189C46.6529 33.256 47.0912 33.329 47.5332 33.3352C48.8876 33.3352 49.4137 32.5806 49.9665 31.2079L50.8015 29.0805L45.1885 16.3163H48.0927L52.1509 26.3367Z" fill="white"/>
<path d="M70.2906 19.5509C69.7378 18.7165 68.5204 18.0969 67.2845 18.0969C64.574 18.0969 62.9992 20.2519 62.9992 22.7013C62.9992 25.1246 64.5757 27.3057 67.3129 27.3057C68.6406 27.3057 69.7746 26.7673 70.466 25.9053L72.2078 27.4407C71.0923 28.68 69.4055 29.4379 67.3029 29.4379C63.2664 29.4379 60.252 26.7722 60.252 22.7062C60.252 18.6938 63.238 15.9744 67.2478 15.9744C69.0999 15.9744 71.0889 16.7014 72.1694 18.0741L70.2906 19.5509Z" fill="white"/>
<path d="M84.1157 18.3935L76.6556 26.9567H84.4263V29.084H73.4424V27.0103L80.8524 18.3903H73.8014V16.3198H84.1157V18.3935Z" fill="white"/>
<path d="M90.1999 21.8674H90.2834L95.7862 16.3196H99.2683L93.1292 22.1097L99.7927 29.0838H96.1954L90.2784 22.4594H90.1949V29.0838H87.5996V8.72583H90.1999V21.8674Z" fill="white"/>
<path d="M110.108 20.8181C110.108 18.933 108.809 18.0174 106.873 18.0174C105.479 18.0238 104.142 18.5547 103.141 19.499L101.758 17.884C103.03 16.6983 104.993 15.9713 107.122 15.9713C110.883 15.9713 112.597 18.1524 112.597 20.9807V26.5545C112.597 27.4165 112.652 28.4672 112.79 29.0852H110.44C110.298 28.484 110.226 27.8692 110.223 27.2522H110.14C109.2 28.6249 107.707 29.4072 105.743 29.4072C103.668 29.4072 100.986 28.4102 100.986 25.4762C100.986 21.6248 105.688 21.1677 110.111 21.1677L110.108 20.8181ZM109.472 22.9975C106.9 22.9975 103.637 23.2675 103.637 25.4209C103.637 26.9286 105.02 27.4132 106.319 27.4132C108.752 27.4132 110.106 25.8242 110.106 23.6724V22.9975H109.472Z" fill="white"/>
</g>
<defs>
<clipPath id="clip0">
<rect width="167" height="45" fill="white"/>
</clipPath>
</defs>
</svg>
